<?xml version="1.0" encoding="UTF-8" standalone="no"?>
<svg
   width="200"
   height="200"
   viewBox="0 0 200 200"
   version="1.1"
   id="svg848"
   inkscape:version="1.1.2 (1:1.1+202202050950+0a00cf5339)"
   sodipodi:docname="safari-pinned-tab.svg"
   xmlns:inkscape="http://www.inkscape.org/namespaces/inkscape"
   xmlns:sodipodi="http://sodipodi.sourceforge.net/DTD/sodipodi-0.dtd"
   xmlns="http://www.w3.org/2000/svg"
   xmlns:svg="http://www.w3.org/2000/svg">
  <sodipodi:namedview
     inkscape:zoom="4.32"
     inkscape:cx="87.731481"
     inkscape:cy="100.11574"
     inkscape:window-width="1920"
     inkscape:window-height="1016"
     inkscape:window-x="1920"
     inkscape:window-y="27"
     inkscape:window-maximized="1"
     inkscape:current-layer="svg848"
     id="namedview852"
     pagecolor="#ffffff"
     bordercolor="#666666"
     borderopacity="1.0"
     inkscape:pageshadow="2"
     inkscape:pageopacity="0.0"
     inkscape:pagecheckerboard="0" />
  <defs
     id="defs842" />
  <path
     id="rect1433"
     d="M 27.435547 7.4355469 A 20 20 0 0 0 7.4355469 27.435547 L 7.4355469 172.56445 A 20 20 0 0 0 27.435547 192.56445 L 172.56445 192.56445 A 20 20 0 0 0 192.56445 172.56445 L 192.56445 27.435547 A 20 20 0 0 0 172.56445 7.4355469 L 27.435547 7.4355469 z M 100 30 A 9.999999 9.999999 0 0 1 110 40 L 125 40 L 125 45 L 150 45 L 150 170 L 50 170 L 50 45 L 75 45 L 75 40 L 90 40 A 9.999999 9.999999 0 0 1 100 30 z M 60 55 L 60 160 L 140 160 L 140 55 L 125 55 L 125 60 L 75 60 L 75 55 L 60 55 z M 70 70 L 130 70 L 130 85 L 70 85 L 70 70 z M 70 100 L 130 100 L 130 115 L 70 115 L 70 100 z M 70 130 L 130 130 L 130 145 L 70 145 L 70 130 z " />
</svg>
